<mxGraphModel dx="2776" dy="3189" grid="1" gridSize="10" guides="1" tooltips="1" connect="1" arrows="1" fold="1" page="1" pageScale="1" pageWidth="827" pageHeight="1169" math="0" shadow="0"><root><mxCell id="WIyWlLk6GJQsqaUBKTNV-0"/><mxCell id="WIyWlLk6GJQsqaUBKTNV-1" parent="WIyWlLk6GJQsqaUBKTNV-0"/><mxCell id="TmT5XR9BnhYOcDT9IY_v-2" value="" style="edgeStyle=orthogonalEdgeStyle;rounded=0;orthogonalLoop=1;jettySize=auto;html=1;" parent="WIyWlLk6GJQsqaUBKTNV-1" source="TmT5XR9BnhYOcDT9IY_v-0" target="TmT5XR9BnhYOcDT9IY_v-1" edge="1"><mxGeometry relative="1" as="geometry"><Array as="points"><mxPoint x="-530" y="-1285"/><mxPoint x="-530" y="-1285"/></Array></mxGeometry></mxCell><mxCell id="TmT5XR9BnhYOcDT9IY_v-69" value="Yes&lt;div&gt;&lt;br&gt;&lt;/div&gt;" style="edgeLabel;html=1;align=center;verticalAlign=middle;resizable=0;points=[];" parent="TmT5XR9BnhYOcDT9IY_v-2" vertex="1" connectable="0"><mxGeometry x="0.0839" y="5" relative="1" as="geometry"><mxPoint x="4" as="offset"/></mxGeometry></mxCell><mxCell id="TmT5XR9BnhYOcDT9IY_v-4" value="" style="edgeStyle=orthogonalEdgeStyle;rounded=0;orthogonalLoop=1;jettySize=auto;html=1;" parent="WIyWlLk6GJQsqaUBKTNV-1" source="TmT5XR9BnhYOcDT9IY_v-0" target="TmT5XR9BnhYOcDT9IY_v-3" edge="1"><mxGeometry relative="1" as="geometry"/></mxCell><mxCell id="TmT5XR9BnhYOcDT9IY_v-70" value="No" style="edgeLabel;html=1;align=center;verticalAlign=middle;resizable=0;points=[];" parent="TmT5XR9BnhYOcDT9IY_v-4" vertex="1" connectable="0"><mxGeometry x="0.0545" y="-6" relative="1" as="geometry"><mxPoint x="-10" y="-6" as="offset"/></mxGeometry></mxCell><mxCell id="TmT5XR9BnhYOcDT9IY_v-0" value="draft?" style="rhombus;whiteSpace=wrap;html=1;" parent="WIyWlLk6GJQsqaUBKTNV-1" vertex="1"><mxGeometry x="-486" y="-1380" width="200" height="190" as="geometry"/></mxCell><mxCell id="TmT5XR9BnhYOcDT9IY_v-12" value="" style="edgeStyle=orthogonalEdgeStyle;rounded=0;orthogonalLoop=1;jettySize=auto;html=1;" parent="WIyWlLk6GJQsqaUBKTNV-1" source="TmT5XR9BnhYOcDT9IY_v-1" target="TmT5XR9BnhYOcDT9IY_v-11" edge="1"><mxGeometry relative="1" as="geometry"><Array as="points"><mxPoint x="-650" y="-1140"/></Array></mxGeometry></mxCell><mxCell id="TmT5XR9BnhYOcDT9IY_v-1" value="Draft Now" style="rounded=1;whiteSpace=wrap;html=1;" parent="WIyWlLk6GJQsqaUBKTNV-1" vertex="1"><mxGeometry x="-712" y="-1315" width="120" height="60" as="geometry"/></mxCell><mxCell id="TmT5XR9BnhYOcDT9IY_v-54" style="edgeStyle=orthogonalEdgeStyle;rounded=0;orthogonalLoop=1;jettySize=auto;html=1;entryX=0.5;entryY=0;entryDx=0;entryDy=0;entryPerimeter=0;" parent="WIyWlLk6GJQsqaUBKTNV-1" source="TmT5XR9BnhYOcDT9IY_v-3" target="TmT5XR9BnhYOcDT9IY_v-40" edge="1"><mxGeometry relative="1" as="geometry"><mxPoint x="-376" y="-480" as="targetPoint"/><Array as="points"><mxPoint x="-110" y="-670"/><mxPoint x="-376" y="-670"/><mxPoint x="-376" y="-610"/></Array></mxGeometry></mxCell><mxCell id="TmT5XR9BnhYOcDT9IY_v-3" value="Draft Later" style="rounded=1;whiteSpace=wrap;html=1;" parent="WIyWlLk6GJQsqaUBKTNV-1" vertex="1"><mxGeometry x="-170" y="-774.66" width="120" height="60" as="geometry"/></mxCell><mxCell id="TmT5XR9BnhYOcDT9IY_v-17" value="" style="edgeStyle=orthogonalEdgeStyle;rounded=0;orthogonalLoop=1;jettySize=auto;html=1;" parent="WIyWlLk6GJQsqaUBKTNV-1" source="TmT5XR9BnhYOcDT9IY_v-11" target="TmT5XR9BnhYOcDT9IY_v-23" edge="1"><mxGeometry relative="1" as="geometry"><mxPoint x="-650" y="-980" as="targetPoint"/><Array as="points"><mxPoint x="-650" y="-950"/><mxPoint x="-650" y="-950"/></Array></mxGeometry></mxCell><mxCell id="TmT5XR9BnhYOcDT9IY_v-18" value="Primary Insured" style="edgeLabel;html=1;align=center;verticalAlign=middle;resizable=0;points=[];" parent="TmT5XR9BnhYOcDT9IY_v-17" vertex="1" connectable="0"><mxGeometry x="-0.375" y="-1" relative="1" as="geometry"><mxPoint x="-1" y="174" as="offset"/></mxGeometry></mxCell><mxCell id="TmT5XR9BnhYOcDT9IY_v-20" value="" style="edgeStyle=orthogonalEdgeStyle;rounded=0;orthogonalLoop=1;jettySize=auto;html=1;" parent="WIyWlLk6GJQsqaUBKTNV-1" source="TmT5XR9BnhYOcDT9IY_v-11" target="TmT5XR9BnhYOcDT9IY_v-24" edge="1"><mxGeometry relative="1" as="geometry"><mxPoint x="-779.9999999999998" y="-1120" as="targetPoint"/></mxGeometry></mxCell><mxCell id="TmT5XR9BnhYOcDT9IY_v-21" value="Other" style="edgeLabel;html=1;align=center;verticalAlign=middle;resizable=0;points=[];" parent="TmT5XR9BnhYOcDT9IY_v-20" vertex="1" connectable="0"><mxGeometry x="-0.05" relative="1" as="geometry"><mxPoint y="204" as="offset"/></mxGeometry></mxCell><mxCell id="TmT5XR9BnhYOcDT9IY_v-27" value="" style="edgeStyle=orthogonalEdgeStyle;rounded=0;orthogonalLoop=1;jettySize=auto;html=1;entryX=0.5;entryY=0;entryDx=0;entryDy=0;entryPerimeter=0;" parent="WIyWlLk6GJQsqaUBKTNV-1" target="TmT5XR9BnhYOcDT9IY_v-63" edge="1"><mxGeometry relative="1" as="geometry"><mxPoint x="-644.0770370370369" y="-1120.002962962963" as="sourcePoint"/><mxPoint x="-420.00296296296307" y="-1090.0029629629632" as="targetPoint"/><Array as="points"><mxPoint x="-387" y="-1120"/></Array></mxGeometry></mxCell><mxCell id="TmT5XR9BnhYOcDT9IY_v-28" value="Owner" style="edgeLabel;html=1;align=center;verticalAlign=middle;resizable=0;points=[];" parent="TmT5XR9BnhYOcDT9IY_v-27" vertex="1" connectable="0"><mxGeometry x="-0.2792" relative="1" as="geometry"><mxPoint x="19" as="offset"/></mxGeometry></mxCell><mxCell id="TmT5XR9BnhYOcDT9IY_v-11" value="Payor type?" style="rhombus;whiteSpace=wrap;html=1;rounded=1;" parent="WIyWlLk6GJQsqaUBKTNV-1" vertex="1"><mxGeometry x="-690" y="-1160" width="80" height="80" as="geometry"/></mxCell><mxCell id="TmT5XR9BnhYOcDT9IY_v-23" value="Set payor info to &quot;primary insured&quot;" style="rounded=1;whiteSpace=wrap;html=1;absoluteArcSize=1;arcSize=14;strokeWidth=2;" parent="WIyWlLk6GJQsqaUBKTNV-1" vertex="1"><mxGeometry x="-717" y="-774.6600000000001" width="110" height="60" as="geometry"/></mxCell><mxCell id="TmT5XR9BnhYOcDT9IY_v-55" style="edgeStyle=orthogonalEdgeStyle;rounded=0;orthogonalLoop=1;jettySize=auto;html=1;" parent="WIyWlLk6GJQsqaUBKTNV-1" source="TmT5XR9BnhYOcDT9IY_v-24" target="TmT5XR9BnhYOcDT9IY_v-40" edge="1"><mxGeometry relative="1" as="geometry"><Array as="points"><mxPoint x="-790" y="-670"/><mxPoint x="-376" y="-670"/></Array></mxGeometry></mxCell><mxCell id="TmT5XR9BnhYOcDT9IY_v-24" value="Set payor info to &quot;other&quot; info" style="rounded=1;whiteSpace=wrap;html=1;absoluteArcSize=1;arcSize=14;strokeWidth=2;" parent="WIyWlLk6GJQsqaUBKTNV-1" vertex="1"><mxGeometry x="-860" y="-774.6600000000001" width="120" height="60" as="geometry"/></mxCell><mxCell id="TmT5XR9BnhYOcDT9IY_v-30" value="" style="edgeStyle=orthogonalEdgeStyle;rounded=0;orthogonalLoop=1;jettySize=auto;html=1;" parent="WIyWlLk6GJQsqaUBKTNV-1" source="TmT5XR9BnhYOcDT9IY_v-26" target="TmT5XR9BnhYOcDT9IY_v-29" edge="1"><mxGeometry relative="1" as="geometry"><Array as="points"><mxPoint x="-386" y="-840"/></Array></mxGeometry></mxCell><mxCell id="TmT5XR9BnhYOcDT9IY_v-31" value="Person" style="edgeLabel;html=1;align=center;verticalAlign=middle;resizable=0;points=[];" parent="TmT5XR9BnhYOcDT9IY_v-30" vertex="1" connectable="0"><mxGeometry x="-0.0852" y="-3" relative="1" as="geometry"><mxPoint as="offset"/></mxGeometry></mxCell><mxCell id="TmT5XR9BnhYOcDT9IY_v-33" value="" style="edgeStyle=orthogonalEdgeStyle;rounded=0;orthogonalLoop=1;jettySize=auto;html=1;" parent="WIyWlLk6GJQsqaUBKTNV-1" source="TmT5XR9BnhYOcDT9IY_v-26" target="TmT5XR9BnhYOcDT9IY_v-32" edge="1"><mxGeometry relative="1" as="geometry"/></mxCell><mxCell id="TmT5XR9BnhYOcDT9IY_v-34" value="Biz / Org" style="edgeLabel;html=1;align=center;verticalAlign=middle;resizable=0;points=[];" parent="TmT5XR9BnhYOcDT9IY_v-33" vertex="1" connectable="0"><mxGeometry x="-0.1444" relative="1" as="geometry"><mxPoint x="10" y="70" as="offset"/></mxGeometry></mxCell><mxCell id="TmT5XR9BnhYOcDT9IY_v-36" value="" style="edgeStyle=orthogonalEdgeStyle;rounded=0;orthogonalLoop=1;jettySize=auto;html=1;" parent="WIyWlLk6GJQsqaUBKTNV-1" source="TmT5XR9BnhYOcDT9IY_v-26" target="TmT5XR9BnhYOcDT9IY_v-35" edge="1"><mxGeometry relative="1" as="geometry"><Array as="points"><mxPoint x="-520" y="-880"/></Array></mxGeometry></mxCell><mxCell id="TmT5XR9BnhYOcDT9IY_v-37" value="Trust" style="edgeLabel;html=1;align=center;verticalAlign=middle;resizable=0;points=[];" parent="TmT5XR9BnhYOcDT9IY_v-36" vertex="1" connectable="0"><mxGeometry x="-0.1556" y="1" relative="1" as="geometry"><mxPoint x="-9" y="69" as="offset"/></mxGeometry></mxCell><mxCell id="TmT5XR9BnhYOcDT9IY_v-26" value="Owner type?" style="rhombus;whiteSpace=wrap;html=1;rounded=1;" parent="WIyWlLk6GJQsqaUBKTNV-1" vertex="1"><mxGeometry x="-427" y="-920" width="80" height="80" as="geometry"/></mxCell><mxCell id="TmT5XR9BnhYOcDT9IY_v-29" value="Set Payor Info to &quot;person info&quot;" style="whiteSpace=wrap;html=1;rounded=1;" parent="WIyWlLk6GJQsqaUBKTNV-1" vertex="1"><mxGeometry x="-447" y="-774.6600000000001" width="120" height="60" as="geometry"/></mxCell><mxCell id="TmT5XR9BnhYOcDT9IY_v-32" value="Set payor info to &lt;br&gt;&quot;biz / org info&quot;" style="whiteSpace=wrap;html=1;rounded=1;" parent="WIyWlLk6GJQsqaUBKTNV-1" vertex="1"><mxGeometry x="-310" y="-774.6600000000001" width="120" height="60" as="geometry"/></mxCell><mxCell id="TmT5XR9BnhYOcDT9IY_v-35" value="Set payor info to &quot;trust info&quot;" style="whiteSpace=wrap;html=1;rounded=1;" parent="WIyWlLk6GJQsqaUBKTNV-1" vertex="1"><mxGeometry x="-585" y="-774.6600000000001" width="120" height="60" as="geometry"/></mxCell><mxCell id="TmT5XR9BnhYOcDT9IY_v-40" value="Done" style="strokeWidth=2;html=1;shape=mxgraph.flowchart.terminator;whiteSpace=wrap;" parent="WIyWlLk6GJQsqaUBKTNV-1" vertex="1"><mxGeometry x="-426" y="-580" width="100" height="60" as="geometry"/></mxCell><mxCell id="TmT5XR9BnhYOcDT9IY_v-60" value="" style="edgeStyle=orthogonalEdgeStyle;rounded=0;orthogonalLoop=1;jettySize=auto;html=1;" parent="WIyWlLk6GJQsqaUBKTNV-1" source="TmT5XR9BnhYOcDT9IY_v-42" target="TmT5XR9BnhYOcDT9IY_v-0" edge="1"><mxGeometry relative="1" as="geometry"/></mxCell><mxCell id="TmT5XR9BnhYOcDT9IY_v-42" value="Start" style="ellipse;whiteSpace=wrap;html=1;" parent="WIyWlLk6GJQsqaUBKTNV-1" vertex="1"><mxGeometry x="-426" y="-1520" width="80" height="80" as="geometry"/></mxCell><mxCell id="TmT5XR9BnhYOcDT9IY_v-56" style="edgeStyle=orthogonalEdgeStyle;rounded=0;orthogonalLoop=1;jettySize=auto;html=1;entryX=0.5;entryY=0;entryDx=0;entryDy=0;entryPerimeter=0;" parent="WIyWlLk6GJQsqaUBKTNV-1" source="TmT5XR9BnhYOcDT9IY_v-23" target="TmT5XR9BnhYOcDT9IY_v-40" edge="1"><mxGeometry relative="1" as="geometry"><Array as="points"><mxPoint x="-652" y="-670"/><mxPoint x="-376" y="-670"/></Array></mxGeometry></mxCell><mxCell id="TmT5XR9BnhYOcDT9IY_v-57" style="edgeStyle=orthogonalEdgeStyle;rounded=0;orthogonalLoop=1;jettySize=auto;html=1;entryX=0.5;entryY=0;entryDx=0;entryDy=0;entryPerimeter=0;" parent="WIyWlLk6GJQsqaUBKTNV-1" source="TmT5XR9BnhYOcDT9IY_v-35" target="TmT5XR9BnhYOcDT9IY_v-40" edge="1"><mxGeometry relative="1" as="geometry"><Array as="points"><mxPoint x="-515" y="-670"/><mxPoint x="-376" y="-670"/></Array></mxGeometry></mxCell><mxCell id="TmT5XR9BnhYOcDT9IY_v-58" style="edgeStyle=orthogonalEdgeStyle;rounded=0;orthogonalLoop=1;jettySize=auto;html=1;entryX=0.5;entryY=0;entryDx=0;entryDy=0;entryPerimeter=0;" parent="WIyWlLk6GJQsqaUBKTNV-1" source="TmT5XR9BnhYOcDT9IY_v-29" target="TmT5XR9BnhYOcDT9IY_v-40" edge="1"><mxGeometry relative="1" as="geometry"><Array as="points"><mxPoint x="-370" y="-730"/><mxPoint x="-370" y="-730"/></Array></mxGeometry></mxCell><mxCell id="TmT5XR9BnhYOcDT9IY_v-59" style="edgeStyle=orthogonalEdgeStyle;rounded=0;orthogonalLoop=1;jettySize=auto;html=1;entryX=0.5;entryY=0;entryDx=0;entryDy=0;entryPerimeter=0;" parent="WIyWlLk6GJQsqaUBKTNV-1" source="TmT5XR9BnhYOcDT9IY_v-32" target="TmT5XR9BnhYOcDT9IY_v-40" edge="1"><mxGeometry relative="1" as="geometry"><Array as="points"><mxPoint x="-240" y="-670"/><mxPoint x="-376" y="-670"/></Array></mxGeometry></mxCell><mxCell id="TmT5XR9BnhYOcDT9IY_v-64" value="" style="edgeStyle=orthogonalEdgeStyle;rounded=0;orthogonalLoop=1;jettySize=auto;html=1;" parent="WIyWlLk6GJQsqaUBKTNV-1" source="TmT5XR9BnhYOcDT9IY_v-63" target="TmT5XR9BnhYOcDT9IY_v-26" edge="1"><mxGeometry relative="1" as="geometry"/></mxCell><mxCell id="TmT5XR9BnhYOcDT9IY_v-67" value="False" style="edgeLabel;html=1;align=center;verticalAlign=middle;resizable=0;points=[];" parent="TmT5XR9BnhYOcDT9IY_v-64" vertex="1" connectable="0"><mxGeometry x="0.3585" y="1" relative="1" as="geometry"><mxPoint y="-14" as="offset"/></mxGeometry></mxCell><mxCell id="TmT5XR9BnhYOcDT9IY_v-65" style="edgeStyle=orthogonalEdgeStyle;rounded=0;orthogonalLoop=1;jettySize=auto;html=1;" parent="WIyWlLk6GJQsqaUBKTNV-1" edge="1"><mxGeometry relative="1" as="geometry"><mxPoint x="-650" y="-1015" as="targetPoint"/><mxPoint x="-452" y="-1035" as="sourcePoint"/></mxGeometry></mxCell><mxCell id="TmT5XR9BnhYOcDT9IY_v-66" value="True" style="edgeLabel;html=1;align=center;verticalAlign=middle;resizable=0;points=[];" parent="TmT5XR9BnhYOcDT9IY_v-65" vertex="1" connectable="0"><mxGeometry x="-0.0307" y="3" relative="1" as="geometry"><mxPoint x="-93" y="-3" as="offset"/></mxGeometry></mxCell><mxCell id="TmT5XR9BnhYOcDT9IY_v-63" value="Owner same as &lt;br&gt;&quot;primary insured&quot;?" style="strokeWidth=2;html=1;shape=mxgraph.flowchart.decision;whiteSpace=wrap;" parent="WIyWlLk6GJQsqaUBKTNV-1" vertex="1"><mxGeometry x="-452" y="-1100" width="130" height="130" as="geometry"/></mxCell></root></mxGraphModel>